<?xml version="1.0" standalone="no"?>
<!DOCTYPE svg PUBLIC "-//W3C//DTD SVG 20010904//EN"
 "http://www.w3.org/TR/2001/REC-SVG-20010904/DTD/svg10.dtd">
<svg version="1.0" xmlns="http://www.w3.org/2000/svg"
 width="1920.000000pt" height="1920.000000pt" viewBox="0 0 1920.000000 1920.000000"
 preserveAspectRatio="xMidYMid meet">

<g transform="translate(0.000000,1920.000000) scale(0.100000,-0.100000)"
fill="#000000" stroke="none">
<path d="M9358 14814 c-37 -19 -58 -63 -58 -119 l0 -45 -81 0 c-89 0 -138 -17
-158 -53 -6 -12 -13 -58 -14 -102 l-2 -79 -35 -8 c-19 -4 -118 -23 -219 -43
-102 -20 -189 -39 -194 -42 -5 -3 5 -19 21 -37 26 -27 95 -131 104 -157 2 -5
46 0 98 11 764 157 1570 78 2291 -226 1072 -451 1894 -1371 2223 -2489 117
-398 162 -749 153 -1190 -8 -416 -64 -743 -192 -1130 -186 -565 -485 -1057
-900 -1484 -371 -381 -748 -644 -1240 -864 -523 -234 -1185 -354 -1756 -318
-567 35 -1044 160 -1531 401 -59 30 -110 52 -112 49 -8 -8 -29 -216 -24 -231
7 -16 245 -125 425 -194 214 -81 469 -150 738 -199 76 -14 143 -31 147 -38 4
-6 8 -45 8 -84 0 -66 3 -76 29 -105 29 -32 31 -33 125 -36 l96 -4 0 -40 c0
-52 23 -100 59 -121 25 -15 59 -17 241 -17 182 0 216 2 241 17 36 21 59 69 59
121 l0 40 96 4 c94 3 96 4 125 36 26 29 29 39 29 105 0 39 4 78 9 85 5 8 66
23 147 37 602 104 1189 349 1681 702 56 40 105 73 110 73 4 0 34 -26 66 -57
53 -53 61 -58 102 -58 41 0 49 5 107 63 35 34 67 62 72 62 5 0 26 -16 47 -35
31 -28 47 -35 80 -35 22 0 52 6 67 14 15 8 88 76 163 153 142 144 158 170 144
232 -3 16 -21 46 -40 67 l-33 39 64 67 c60 61 64 69 64 112 0 42 -5 50 -59
108 l-59 63 24 30 c14 17 60 82 103 145 332 489 554 1040 654 1620 l23 135 87
5 c78 5 90 8 115 33 25 25 27 35 32 125 l5 97 55 5 c120 12 130 34 130 297 0
168 -3 203 -18 233 -21 43 -72 70 -129 70 l-43 0 0 90 c0 85 -2 91 -29 122
-28 32 -33 33 -117 38 l-88 5 -23 135 c-94 541 -279 1027 -574 1500 -43 69
-107 165 -143 214 l-65 90 59 62 c54 56 60 67 60 104 0 38 -6 48 -66 111 l-67
68 36 40 c82 91 68 127 -120 312 -160 157 -184 171 -246 145 -18 -7 -47 -25
-65 -41 l-33 -27 -68 66 c-96 92 -127 91 -227 -6 l-51 -50 -59 45 c-152 114
-391 260 -585 357 -354 178 -726 301 -1134 375 -82 15 -152 29 -155 30 -3 2
-7 39 -7 81 -1 43 -7 88 -14 101 -20 36 -69 53 -158 53 l-81 0 0 45 c0 57 -21
100 -60 120 -42 22 -442 21 -482 -1z"/>
<path d="M6809 14766 c-109 -39 -180 -150 -209 -326 -28 -167 7 -334 93 -443
29 -38 30 -39 23 -125 -14 -184 -140 -1729 -261 -3202 -46 -569 -98 -1206
-115 -1415 -17 -209 -49 -594 -70 -855 -22 -261 -64 -781 -95 -1155 -89 -1093
-104 -1280 -136 -1665 -27 -319 -30 -376 -20 -453 15 -111 44 -189 87 -233 29
-28 42 -34 77 -34 81 0 149 86 188 237 21 84 59 643 204 3043 14 228 34 568
45 755 19 304 91 1477 105 1695 11 179 66 1063 90 1465 52 855 65 1080 91
1490 l26 420 38 41 c50 54 77 108 101 201 34 136 20 321 -32 425 -55 109 -149
164 -230 134z"/>
<path d="M8295 14205 c-82 -44 -166 -169 -196 -295 -8 -30 -14 -104 -13 -165
0 -130 18 -199 70 -276 l37 -54 -22 -150 c-12 -82 -42 -285 -66 -450 -42 -281
-125 -846 -430 -2910 -69 -467 -163 -1106 -210 -1420 -46 -313 -118 -799 -159
-1080 -95 -641 -203 -1375 -306 -2066 -94 -630 -96 -651 -81 -748 29 -183 115
-264 216 -201 58 36 120 148 149 270 9 36 48 317 87 625 136 1086 220 1747
304 2400 46 363 111 876 145 1140 33 264 71 568 85 675 14 107 66 517 116 910
49 393 110 870 134 1060 24 190 81 633 125 985 44 352 90 710 101 795 l21 155
48 51 c55 59 79 102 109 198 61 197 19 441 -91 529 -47 37 -126 47 -173 22z"/>
<path d="M7800 14034 c-179 -87 -408 -221 -564 -332 -59 -42 -117 -81 -127
-87 -21 -11 -25 -37 -34 -209 l-7 -119 25 19 c14 10 71 56 128 100 169 132
474 325 640 405 44 21 47 25 53 72 6 43 39 158 61 210 12 28 -11 21 -175 -59z"/>
<path d="M9325 13949 c-129 -10 -356 -43 -470 -67 l-80 -17 -6 -40 c-4 -22 -4
-43 -1 -47 4 -4 48 2 99 12 842 174 1739 37 2468 -378 808 -460 1406 -1213
1665 -2097 49 -169 83 -335 111 -540 30 -216 32 -649 6 -860 -85 -669 -323
-1246 -727 -1765 -304 -389 -654 -687 -1105 -938 -319 -178 -779 -332 -1155
-386 -305 -44 -741 -47 -1015 -7 -442 66 -838 194 -1188 387 -66 36 -120 64
-122 62 -2 -2 -6 -23 -10 -48 -7 -53 -21 -42 175 -140 805 -403 1710 -494
2585 -260 1055 282 1950 1060 2385 2073 135 316 219 630 272 1022 17 133 18
693 0 825 -64 466 -164 804 -357 1195 -268 545 -652 995 -1155 1355 -679 486
-1537 724 -2375 659z"/>
<path d="M6383 13488 c-154 -157 -165 -191 -86 -279 l36 -40 -67 -68 c-60 -63
-66 -73 -66 -111 0 -37 6 -48 55 -99 30 -32 55 -63 55 -69 0 -6 -31 -54 -69
-107 -227 -313 -441 -739 -564 -1120 -48 -149 -112 -411 -140 -575 l-23 -135
-88 -5 c-84 -5 -89 -6 -117 -38 -27 -31 -29 -37 -29 -122 l0 -90 -42 0 c-58 0
-109 -27 -130 -70 -15 -30 -18 -65 -18 -233 0 -263 10 -285 130 -297 l55 -5 5
-97 c5 -90 7 -100 33 -125 25 -26 35 -28 115 -31 l87 -4 22 -137 c47 -281 146
-623 260 -894 59 -142 193 -411 245 -492 l32 -50 17 200 18 200 -74 170 c-224
516 -325 1001 -325 1560 0 784 213 1491 648 2155 l75 115 38 455 c21 250 40
479 43 508 2 28 1 52 -3 52 -4 0 -62 -55 -128 -122z"/>
<path d="M7788 13477 c-140 -82 -281 -177 -408 -276 -117 -90 -317 -267 -330
-290 -5 -11 -10 -45 -10 -76 l0 -57 118 109 c64 60 144 132 177 159 145 123
398 296 554 380 29 15 55 34 58 41 6 15 -16 83 -26 83 -4 0 -64 -33 -133 -73z"/>
<path d="M6336 11923 c-169 -339 -287 -733 -341 -1143 -35 -266 -30 -708 11
-984 32 -219 131 -624 146 -600 13 20 20 240 10 279 -46 169 -89 495 -98 745
-18 477 83 1039 263 1453 30 70 37 101 47 210 7 70 11 127 9 127 -2 0 -23 -39
-47 -87z"/>
<path d="M9480 11823 c-446 -45 -821 -253 -1079 -598 -124 -166 -113 -126
-175 -616 -31 -239 -62 -481 -70 -539 l-14 -105 30 -95 c87 -275 262 -531 485
-710 589 -474 1432 -440 1977 80 223 212 369 476 439 790 29 131 31 441 4 574
-143 703 -736 1205 -1442 1220 -66 2 -136 1 -155 -1z"/>
<path d="M6756 8172 c-14 -86 -10 -95 75 -196 44 -53 135 -151 201 -219 132
-133 136 -134 137 -40 1 35 -4 45 -31 68 -50 41 -212 219 -299 327 l-77 96 -6
-36z"/>
<path d="M6715 7538 c-4 -84 -12 -238 -19 -343 -7 -104 -11 -192 -9 -194 2 -3
16 8 31 22 16 15 32 27 37 27 5 0 38 -28 73 -62 58 -58 66 -63 107 -63 40 0
50 5 89 45 l45 45 22 157 22 157 -54 48 c-30 26 -115 107 -189 180 -75 73
-139 133 -142 133 -3 0 -9 -69 -13 -152z"/>
</g>
</svg>
